<svg xmlns="http://www.w3.org/2000/svg" width="620" height="281" viewBox="0 0 620 281">
    <style>
      @import url("https://fonts.googleapis.com/css2?family=JetBrains+Mono:wght@400;600;700;800&amp;display=swap");
      @keyframes fadeUp { from { opacity: 0; transform: translateY(8px); } to { opacity: 1; transform: translateY(0); } }
      @keyframes blink { 0%, 100% { opacity: 1; } 50% { opacity: 0; } }
      svg { animation: fadeUp 0.6s ease-out both; }
      .title { font: 700 14px "JetBrains Mono", "Courier New", monospace; fill: #ffffff; letter-spacing: 1px; }
      .cursor { animation: blink 1.2s steps(1) infinite; }
      .colTitle { font: 700 11px "JetBrains Mono", "Courier New", monospace; fill: #aaaaaa; letter-spacing: 1px; }
      .lang { font: 600 12px "JetBrains Mono", "Courier New", monospace; fill: #ffffff; }
      .pct { font: 700 12px "JetBrains Mono", "Courier New", monospace; fill: #888888; }
      .track { fill: #333333; }
      .bar { fill: #5cc266; }
    </style>
    <text x="20" y="28" class="title">// LANGUAGES<tspan class="cursor"> |</tspan></text>
    <g transform="translate(20, 55)">
      <g transform="translate(0, 0)">
    <text x="0" y="10" class="colTitle">BY BYTES</text>
    
      <text x="0" y="40" class="lang">C++</text>
      <rect x="90" y="29" width="180" height="10" class="track"/>
      <rect x="90" y="29" width="0" height="10" class="bar">
        <animate attributeName="width" from="0" to="117" dur="0.6s" begin="0s" fill="freeze"/>
      </rect>
      <text x="276" y="40" class="pct">65%</text>
    
      <text x="0" y="66" class="lang">C</text>
      <rect x="90" y="55" width="180" height="10" class="track"/>
      <rect x="90" y="55" width="0" height="10" class="bar">
        <animate attributeName="width" from="0" to="52.199999999999996" dur="0.6s" begin="0.08s" fill="freeze"/>
      </rect>
      <text x="276" y="66" class="pct">29%</text>
    
      <text x="0" y="92" class="lang">Java</text>
      <rect x="90" y="81" width="180" height="10" class="track"/>
      <rect x="90" y="81" width="0" height="10" class="bar">
        <animate attributeName="width" from="0" to="2" dur="0.6s" begin="0.16s" fill="freeze"/>
      </rect>
      <text x="276" y="92" class="pct">1%</text>
    
      <text x="0" y="118" class="lang">Objective-C</text>
      <rect x="90" y="107" width="180" height="10" class="track"/>
      <rect x="90" y="107" width="0" height="10" class="bar">
        <animate attributeName="width" from="0" to="2" dur="0.6s" begin="0.24s" fill="freeze"/>
      </rect>
      <text x="276" y="118" class="pct">1%</text>
    
      <text x="0" y="144" class="lang">C#</text>
      <rect x="90" y="133" width="180" height="10" class="track"/>
      <rect x="90" y="133" width="0" height="10" class="bar">
        <animate attributeName="width" from="0" to="2" dur="0.6s" begin="0.32s" fill="freeze"/>
      </rect>
      <text x="276" y="144" class="pct">1%</text>
    
      <text x="0" y="170" class="lang">other</text>
      <rect x="90" y="159" width="180" height="10" class="track"/>
      <rect x="90" y="159" width="0" height="10" class="bar">
        <animate attributeName="width" from="0" to="5.3999999999999995" dur="0.6s" begin="0.4s" fill="freeze"/>
      </rect>
      <text x="276" y="170" class="pct">3%</text>
    
  </g>
      <g transform="translate(300, 0)">
    <text x="0" y="10" class="colTitle">BY REPOS</text>
    
      <text x="0" y="40" class="lang">JavaScript</text>
      <rect x="90" y="29" width="180" height="10" class="track"/>
      <rect x="90" y="29" width="0" height="10" class="bar">
        <animate attributeName="width" from="0" to="45" dur="0.6s" begin="0s" fill="freeze"/>
      </rect>
      <text x="276" y="40" class="pct">25%</text>
    
      <text x="0" y="66" class="lang">Shell</text>
      <rect x="90" y="55" width="180" height="10" class="track"/>
      <rect x="90" y="55" width="0" height="10" class="bar">
        <animate attributeName="width" from="0" to="30.6" dur="0.6s" begin="0.08s" fill="freeze"/>
      </rect>
      <text x="276" y="66" class="pct">17%</text>
    
      <text x="0" y="92" class="lang">Java</text>
      <rect x="90" y="81" width="180" height="10" class="track"/>
      <rect x="90" y="81" width="0" height="10" class="bar">
        <animate attributeName="width" from="0" to="30.6" dur="0.6s" begin="0.16s" fill="freeze"/>
      </rect>
      <text x="276" y="92" class="pct">17%</text>
    
      <text x="0" y="118" class="lang">C#</text>
      <rect x="90" y="107" width="180" height="10" class="track"/>
      <rect x="90" y="107" width="0" height="10" class="bar">
        <animate attributeName="width" from="0" to="30.6" dur="0.6s" begin="0.24s" fill="freeze"/>
      </rect>
      <text x="276" y="118" class="pct">17%</text>
    
      <text x="0" y="144" class="lang">C++</text>
      <rect x="90" y="133" width="180" height="10" class="track"/>
      <rect x="90" y="133" width="0" height="10" class="bar">
        <animate attributeName="width" from="0" to="14.4" dur="0.6s" begin="0.32s" fill="freeze"/>
      </rect>
      <text x="276" y="144" class="pct">8%</text>
    
      <text x="0" y="170" class="lang">other</text>
      <rect x="90" y="159" width="180" height="10" class="track"/>
      <rect x="90" y="159" width="0" height="10" class="bar">
        <animate attributeName="width" from="0" to="30.6" dur="0.6s" begin="0.4s" fill="freeze"/>
      </rect>
      <text x="276" y="170" class="pct">17%</text>
    
  </g>
    </g>
  </svg>